<svg width="263" height="238" viewBox="0 0 263 238" fill="none" xmlns="http://www.w3.org/2000/svg">
<path d="M159.554 101.363C159.554 101.363 146.488 127.318 133.205 145.25C127.921 152.38 122.611 158.235 118.065 160.688C113.628 163.074 109.86 166.788 106.747 170.908C98.6921 181.561 94.9651 194.912 94.9651 194.912L61.0121 143.922C61.0121 143.922 62.1725 94.0706 66.2409 85.735C72.1796 73.5771 75.0465 49.0308 77.3401 44.1379C79.033 40.5054 83.8658 21.7874 84.33 20.4049C84.5348 19.8085 86.1457 18.9004 88.2345 18.9004C89.9137 18.9004 92.7534 20.5133 93.477 23.8205C97.1084 40.5325 92.7397 51.5519 92.7807 52.0534C94.064 64.9025 90.2141 74.431 92.9172 76.952C93.0128 77.0469 93.2039 77.0062 93.4633 76.83C98.146 73.8481 127.198 31.8038 130.775 30.8956C134.57 29.9198 159.554 101.363 159.554 101.363Z" fill="#FFDB7D"/>
<path d="M105.191 184.801C105.191 184.801 104.726 207.463 103.402 237.986H17.7758C37.3393 196.552 54.3636 161.664 54.3636 161.664C54.3636 161.664 103.129 163.141 105.191 184.801Z" fill="#D2E3FC"/>
<path d="M189.429 13.0808L178.917 28.3832L168.596 43.401C167.968 44.16 167.244 44.4175 166.452 44.3362C163.981 44.1058 160.91 40.5547 158.52 38.5893L158.275 38.386C155.121 35.7972 154.684 31.1346 157.292 28.0037L173.06 9.08236L177.743 3.47101C180.35 0.340047 185.047 -0.0936775 188.2 2.49513L188.446 2.69844C191.6 5.27369 192.036 9.94981 189.429 13.0808Z" fill="#FDCD51"/>
<path d="M178.721 28.8083L168.4 43.8261C167.772 44.5851 167.049 44.8426 166.257 44.7613L172.864 9.521C172.892 9.71075 174.011 25.5282 178.721 28.8083Z" fill="#FDCD51"/>
<path d="M133.205 145.25C127.921 152.38 122.611 158.235 118.065 160.688C113.628 163.074 109.86 166.788 106.747 170.908C103.17 169.254 99.0881 167.303 95.1017 165.392C90.2415 163.047 90.064 156.202 94.815 153.667C94.8559 153.64 94.9105 153.613 94.9515 153.586C99.4021 151.051 103.976 142.119 103.976 142.119L133.205 145.25Z" fill="#FDCD51"/>
<path d="M84.1116 21.1638L81.3539 32.1967C81.3539 32.1967 83.7567 33.1726 85.2994 32.4136C86.8421 31.6546 88.1254 21.7602 84.1116 21.1638Z" fill="#FCE29E"/>
<path d="M163.226 150.455H104.071C98.2552 150.455 93.4906 145.725 93.4906 139.951V10.8627C93.4906 5.08873 98.2552 0.358398 104.071 0.358398H163.226C169.042 0.358398 173.806 5.08873 173.806 10.8627V139.951C173.806 145.725 169.042 150.455 163.226 150.455Z" fill="#2B478B"/>
<path d="M169.834 11.852V137.945C169.834 142.228 166.339 145.724 162.052 145.724H105.245C100.972 145.724 97.4634 142.228 97.4634 137.945V11.852C97.4634 7.56894 100.958 4.07202 105.245 4.07202H162.052C166.325 4.07202 169.834 7.5825 169.834 11.852Z" fill="#C0D8FB"/>
<path d="M162.052 4.07202L105.955 145.738H105.259C100.986 145.738 97.4772 142.241 97.4772 137.958V11.852C97.4772 7.56894 100.972 4.07202 105.259 4.07202H162.052Z" fill="#CBE1FD"/>
<path d="M145.519 8.76209H121.778C119.839 8.76209 118.256 7.18982 118.256 5.26516V4.723C118.256 2.79833 119.839 1.22607 121.778 1.22607H145.519C147.458 1.22607 149.041 2.79833 149.041 4.723V5.26516C149.041 7.20338 147.458 8.76209 145.519 8.76209Z" fill="#2B478B"/>
<path d="M184.005 71.2864L182.435 71.8828L171.895 75.8541C171.649 75.9489 171.404 76.0303 171.144 76.0845C167.649 76.979 163.936 75.1357 162.625 71.7201L162.475 71.3135C161.069 67.6539 162.939 63.5064 166.639 62.1104L176.469 58.3966L177.178 58.1255L178.748 57.5291C182.435 56.1331 186.612 57.99 188.005 61.6631L188.155 62.0697C189.575 65.7564 187.704 69.9039 184.005 71.2864Z" fill="#FDCD51"/>
<path d="M175.445 71.5304C173.683 72.1946 170.503 73.3738 168.796 73.6042C168.318 73.6719 167.431 73.4144 166.598 72.5063C166.107 71.9642 165.629 71.1916 165.274 70.1344C165.11 69.6329 164.973 69.1314 164.919 68.6163C164.851 68.0199 164.864 67.41 164.973 66.8136C165.069 66.2715 165.438 65.7835 165.984 65.526C165.984 65.526 165.984 65.526 165.997 65.526C167.813 64.6721 170.257 63.6149 172.387 63.0321C173.861 62.6255 175.363 63.2761 175.827 64.5637L176.045 65.1601L177.178 68.2368C177.643 69.5244 176.878 70.9883 175.445 71.5304Z" fill="#FCE29E"/>
<path d="M175.445 71.5303C173.684 72.1945 170.503 73.3737 168.796 73.6041C168.318 73.6718 167.431 73.4143 166.598 72.5062C166.516 72.3029 166.434 72.086 166.352 71.8556C166.189 71.3541 166.052 70.8526 165.997 70.3376C165.929 69.7412 165.943 69.1313 166.052 68.5349C166.148 67.9927 166.516 67.5048 167.062 67.2473C167.062 67.2473 167.062 67.2473 167.076 67.2473C168.892 66.3934 171.335 65.3362 173.465 64.7533C174.407 64.4958 175.363 64.672 176.059 65.16L177.192 68.2367C177.643 69.5243 176.878 70.9882 175.445 71.5303Z" fill="#FDCD51"/>
<path d="M179.226 86.006L171.09 88.2017C168.618 88.8659 166.052 87.4156 165.369 84.9623L165.124 84.0542C164.455 81.6009 165.915 79.0528 168.386 78.3751L176.523 76.1794C178.994 75.5152 181.561 76.9655 182.243 79.4188L182.489 80.3269C183.158 82.7801 181.697 85.3418 179.226 86.006Z" fill="#FDCD51"/>
<path d="M174.83 85.6128C173.342 86.0059 170.639 86.7107 169.219 86.7785C168.7 86.8056 167.677 86.3718 167.008 85.03C166.844 84.7047 166.707 84.3252 166.598 83.8915C166.502 83.4984 166.421 83.1053 166.421 82.6987C166.407 82.2243 166.475 81.7635 166.598 81.3162C166.721 80.9096 167.062 80.5572 167.513 80.3945C167.513 80.3945 167.513 80.3945 167.526 80.3945C169.069 79.8524 171.158 79.2018 172.96 78.8901C174.202 78.6732 175.376 79.2696 175.677 80.2861L175.881 81.018L176.509 83.2002C176.783 84.2168 176.045 85.2875 174.83 85.6128Z" fill="#FDCD51"/>
<path d="M174.83 85.6127C173.342 86.0057 170.639 86.7105 169.219 86.7783C168.7 86.8054 167.676 86.3717 167.007 85.0299C166.912 84.6639 166.857 84.2979 166.844 83.9184C166.83 83.4576 166.898 82.9832 167.021 82.5359C167.144 82.1293 167.485 81.7769 167.936 81.6143C167.936 81.6143 167.936 81.6143 167.949 81.6143C169.492 81.0721 171.581 80.4215 173.383 80.1098C174.407 79.9336 175.404 80.3131 175.868 81.0179L176.496 83.2001C176.782 84.2166 176.045 85.2874 174.83 85.6127Z" fill="#FCE29E"/>
<path d="M46.0221 178.851C46.0221 178.851 62.7596 194.763 74.0363 200.903L82.5826 194.885V203.763C82.5826 203.763 99.3884 206.718 104.685 203.763V179.569L57.5036 156.094L46.0221 178.851Z" fill="#C1DAFF"/>
<path d="M108.249 201.852C101.75 203.18 87.743 198.111 87.743 198.111L90.0093 176.438L74.1728 194.438C66.118 191.456 53.517 183.69 46.0356 178.864C42.3086 176.452 39.8512 174.771 39.8512 174.771C50.418 157.896 61.0394 142.106 61.0394 142.106C64.1521 148.3 71.5379 153.681 79.5381 157.978C92.8353 165.134 107.853 169.309 107.853 169.309C107.839 182.185 108.249 201.852 108.249 201.852Z" fill="#DCEAFF"/>
<path d="M183.768 55.8868C183.713 55.9139 183.659 55.9275 183.59 55.941L172.928 58.6518C168.245 59.8446 163.399 57.3235 162.157 53.054L161.529 50.8719C160.341 46.765 162.894 42.482 167.249 41.0859L170.771 40.1913L177.911 38.3751C182.594 37.1824 187.44 39.7034 188.683 43.9729L189.311 46.1551C190.485 50.2077 188.014 54.4366 183.768 55.8868Z" fill="#FDCD51"/>
<path d="M178.894 52.9322L173.72 55.2499C173.706 55.2499 173.706 55.2499 173.693 55.2634C173.488 55.3177 173.269 55.3583 173.065 55.3854C172.983 55.399 172.887 55.4125 172.805 55.4125C172.764 55.4125 172.737 55.4125 172.696 55.4125C172.123 55.399 171.74 54.7891 171.986 54.2605C172.478 53.2032 172.614 51.9834 172.273 50.7771L172.15 50.3298V50.3162L171.754 48.8524C171.44 47.6868 170.757 46.7109 169.87 46.0061C169.761 45.9248 169.652 45.8434 169.542 45.7621C168.519 45.0573 168.778 43.4579 169.979 43.1327C169.993 43.1327 170.007 43.1327 170.007 43.1191L175.686 42.2652C177.092 41.8857 178.444 42.9565 178.826 44.3525L179.276 46.0196L180.246 49.5708C180.628 50.9804 180.287 52.5526 178.894 52.9322Z" fill="#FDCD51"/>
<path d="M178.894 52.9321L173.72 55.2498C173.706 55.2498 173.706 55.2498 173.693 55.2634C173.57 55.2905 173.188 55.3447 172.696 55.426C172.123 55.4125 171.74 54.8025 171.986 54.2739C172.478 53.2167 172.614 51.9969 172.273 50.7906L172.15 50.3433V50.3297L171.754 48.8659C171.44 47.7003 170.758 46.7244 169.87 46.0196C170.048 45.7485 170.321 45.5452 170.689 45.4503C170.703 45.4503 170.717 45.4503 170.717 45.4367L176.396 44.5829C177.584 44.2576 178.73 44.9759 179.29 46.0331L180.259 49.5843C180.628 50.9803 180.287 52.5526 178.894 52.9321Z" fill="#FCE29E"/>
<path d="M93.4907 110.864C93.4907 110.864 91.1699 90.7092 89.0265 86.7786C86.8831 82.8479 85.0673 74.9731 88.3712 69.1313C91.6613 63.2896 92.8081 52.0398 92.8081 52.0398C94.0914 64.8889 90.2415 74.4174 92.9446 76.9384C93.0402 77.0333 93.2313 76.9926 93.4907 76.8164V110.864Z" fill="#FDCD51"/>
<path d="M64.6709 78.0362H145.437C148.236 78.0362 150.516 75.7863 150.516 72.9941V40.8848C150.516 38.1063 148.25 35.8428 145.437 35.8428H64.6709C61.8722 35.8428 59.5923 38.0927 59.5923 40.8848V72.9941C59.5923 75.7863 61.8722 78.0362 64.6709 78.0362Z" fill="#699DEE"/>
<path d="M145.997 30.5026H114.392C112.044 30.5026 110.146 28.6186 110.146 26.2873V20.3371C110.146 18.0058 112.044 16.1218 114.392 16.1218H145.997C148.345 16.1218 150.243 18.0058 150.243 20.3371V26.2873C150.243 28.6186 148.345 30.5026 145.997 30.5026Z" fill="#9ABFF6"/>
<path d="M144.618 135.966H108.167C105.354 135.966 103.088 133.702 103.088 130.924V123.279C103.088 120.487 105.368 118.237 108.167 118.237H144.604C147.417 118.237 149.683 120.501 149.683 123.279V130.924C149.697 133.702 147.417 135.966 144.618 135.966Z" fill="#9ABFF6"/>
<path d="M158.775 110.864H124.345C120.986 110.864 118.256 108.153 118.256 104.819V91.4411C118.256 88.1068 120.986 85.396 124.345 85.396H158.775C162.134 85.396 164.864 88.1068 164.864 91.4411V104.819C164.878 108.153 162.147 110.864 158.775 110.864Z" fill="#FDCD51"/>
<path d="M256.115 238H193.302C190.285 235.994 174.653 225.408 168.182 217.506C166.816 215.839 161.792 201.404 157.943 189.707C155.54 182.388 153.574 176.14 153.246 174.703C153.137 174.201 153.055 173.212 153.014 171.87V171.857C152.85 167.072 153.069 157.828 153.301 150.495V150.455V150.36C153.315 150.035 153.328 149.723 153.328 149.411V149.398C153.328 149.371 153.328 149.33 153.328 149.303C153.369 148.029 153.41 146.822 153.451 145.738C153.547 143.014 153.629 140.953 153.669 140.154L153.683 139.774C153.779 139.72 156.809 138.121 160.837 141.008C161.806 141.713 162.707 143.393 163.54 145.589C164.072 146.999 164.564 148.611 165.014 150.306C166.776 156.839 168.045 164.659 168.714 166.747C169.806 170.135 182.639 185.004 183.445 185.926C183.459 185.939 183.472 185.953 183.486 185.966V162.477L173.793 136.725L169.806 126.153L167.813 120.839C167.813 120.839 164.741 115.838 162.175 109.82C161.042 107.191 160.018 104.358 159.376 101.674C159.226 101.037 159.089 100.4 158.994 99.7766C158.612 97.4995 158.584 95.3986 159.117 93.6908C160.059 90.6412 162.161 90.0584 163.786 90.1262C163.95 90.1262 164.113 90.1397 164.277 90.1668C164.441 90.1804 164.591 90.221 164.741 90.2617C165.028 90.343 165.301 90.4515 165.547 90.6005C165.956 90.8445 166.325 91.1698 166.598 91.5764C166.598 91.5764 167.963 93.352 169.806 95.7375C171.021 97.3098 172.428 99.1395 173.793 100.915C176.209 104.073 178.448 107.014 179.076 107.868C182.407 112.531 191.39 127.725 191.39 127.725L201.903 128.159C203.568 128.226 205.152 128.89 206.367 130.015C210.108 133.485 218.162 140.981 219.159 142.092C219.159 142.458 225.425 145.453 230.258 148.11C233.712 149.56 240.293 154.711 240.293 154.711C241.658 155.904 242.695 157.096 243.214 158.235C245.467 163.101 251.583 205.457 254.504 226.398C255.46 233.134 256.074 237.647 256.115 238Z" fill="#FFDB7D"/>
<path d="M191.404 127.725C191.404 127.725 201.138 143.502 202.435 144.22C203.718 144.925 208.742 145.928 209.316 144.22C209.875 142.512 191.404 127.725 191.404 127.725Z" fill="#FDCD51"/>
<path d="M240.347 154.765C240.333 154.752 240.32 154.738 240.292 154.724C240.292 154.724 233.712 149.574 230.258 148.124C225.821 145.684 220.169 142.96 219.282 142.241C220.319 143.407 227.569 151.566 230.354 152.176C232.811 152.718 238.381 154.223 240.347 154.765Z" fill="#FDCD51"/>
<path d="M183.499 185.966V162.477C183.499 162.477 189.124 171.816 189.547 176.926C189.984 182.049 187.213 190.344 183.499 185.966Z" fill="#FDCD51"/>
<path d="M163.117 99.7903C162.298 98.3943 160.823 95.8597 160.318 94.4365C160.181 94.0299 160.195 93.2302 160.687 92.3763C160.987 91.8613 161.451 91.3327 162.161 90.8583C162.489 90.6414 162.83 90.4381 163.199 90.3026C163.622 90.1535 164.072 90.0721 164.523 90.0586C164.932 90.0586 165.356 90.289 165.656 90.7092C166.625 92.1188 167.868 94.0435 168.7 95.7784C169.288 96.9847 169.096 98.3672 168.25 98.9771L167.854 99.2617L165.833 100.726C164.987 101.349 163.786 100.929 163.117 99.7903Z" fill="#FFD3B6"/>
<path d="M163.117 99.7906C162.298 98.3945 160.823 95.8599 160.318 94.4368C160.181 94.0301 160.195 93.2305 160.687 92.3766C160.823 92.2681 160.96 92.1597 161.11 92.0648C161.437 91.848 161.779 91.6446 162.147 91.5091C162.571 91.36 163.021 91.2787 163.472 91.2651C163.881 91.2651 164.304 91.4956 164.605 91.9157C165.574 93.3253 166.816 95.25 167.649 96.9849C168.018 97.7575 168.086 98.5978 167.854 99.262L165.834 100.726C164.987 101.349 163.786 100.929 163.117 99.7906Z" fill="#FCE29E"/>
<path d="M217.958 39.5972H204.797C201.329 39.5972 198.503 36.778 198.503 33.3488V22.587C198.503 19.1443 201.343 16.3386 204.797 16.3386H217.958C221.425 16.3386 224.251 19.1578 224.251 22.587V33.3353C224.265 36.778 221.425 39.5972 217.958 39.5972Z" fill="#DFEBFD"/>
<path d="M6.22596 100.197H45.6671C48.8071 100.197 51.3873 102.745 51.3873 105.876V123.063C51.3873 125.936 49.0255 128.281 46.1313 128.281H45.121L47.0186 136.251L35.0866 128.281H5.89831C2.75831 128.281 0.191701 125.733 0.191701 122.615V106.229C0.178049 102.908 2.90848 100.197 6.22596 100.197Z" fill="#DFEBFD"/>
<path d="M5.17479 112.667H46.2951C46.8549 112.667 47.3191 112.206 47.3191 111.65C47.3191 111.094 46.8549 110.634 46.2951 110.634H5.17479C4.61505 110.634 4.15088 111.094 4.15088 111.65C4.15088 112.219 4.61505 112.667 5.17479 112.667Z" fill="#CBE1FD"/>
<path d="M5.17479 117.194H46.2951C46.8549 117.194 47.3191 116.733 47.3191 116.177C47.3191 115.621 46.8549 115.161 46.2951 115.161H5.17479C4.61505 115.161 4.15088 115.621 4.15088 116.177C4.15088 116.746 4.61505 117.194 5.17479 117.194Z" fill="#CBE1FD"/>
<path d="M5.17479 121.721H46.2951C46.8549 121.721 47.3191 121.26 47.3191 120.704C47.3191 120.149 46.8549 119.688 46.2951 119.688H5.17479C4.61505 119.688 4.15088 120.149 4.15088 120.704C4.15088 121.274 4.61505 121.721 5.17479 121.721Z" fill="#CBE1FD"/>
<path d="M27.578 105.646H45.0391C45.7081 105.646 46.2541 105.104 46.2541 104.439C46.2541 103.775 45.7081 103.233 45.0391 103.233H27.578C26.909 103.233 26.3629 103.775 26.3629 104.439C26.3629 105.104 26.909 105.646 27.578 105.646Z" fill="#CBE1FD"/>
<path d="M12.5742 105.646H23.0864C23.6188 105.646 24.042 105.212 24.042 104.697V104.195C24.042 103.667 23.6051 103.247 23.0864 103.247H12.5742C12.0417 103.247 11.6185 103.68 11.6185 104.195V104.697C11.6185 105.212 12.0554 105.646 12.5742 105.646Z" fill="#CBE1FD"/>
<path d="M204.415 108.912L229.234 116.963L214.367 102.583L212.865 106.107L206.476 106.134L204.415 108.912Z" fill="#9EC3F6"/>
<path d="M229.234 116.963L209.971 102.42L189.397 97.7571L229.234 116.963Z" fill="white"/>
<path d="M214.367 102.582L229.234 116.963L219.323 96.822L214.367 102.582Z" fill="white"/>
<path d="M58.1316 17.1655L34.9365 20.4456L50.3362 10.0361L51.1144 13.3704L56.7527 14.387L58.1316 17.1655Z" fill="#9EC3F6"/>
<path d="M34.9365 20.4456L54.2407 10.5647L73.1489 9.61597L34.9365 20.4456Z" fill="white"/>
<path d="M50.3362 10.0361L34.9365 20.4455L46.8549 4.16724L50.3362 10.0361Z" fill="white"/>
<path d="M94.5418 55.3605C94.5418 58.3694 93.5179 61.1344 91.8114 63.3437C91.238 64.0757 90.5963 64.7533 89.8864 65.3497C87.5929 67.2879 84.6167 68.4536 81.3675 68.4536C78.4186 68.4536 75.7018 67.4912 73.5038 65.8648C72.5345 65.1464 71.6744 64.3061 70.9372 63.3573C69.217 61.148 68.2068 58.383 68.2068 55.374C68.2068 48.1497 74.1045 42.2944 81.3811 42.2944C88.6577 42.2944 94.5418 48.1362 94.5418 55.3605Z" fill="white"/>
<path d="M86.6509 61.5409C86.6099 61.5002 86.5826 61.4595 86.5417 61.4324C86.3915 61.3105 86.2413 61.2427 85.627 61.1478C85.313 61.0936 84.8898 61.0394 84.2754 60.958C84.2754 60.958 84.1389 60.9445 84.0706 60.9445C84.0297 60.9445 83.9751 60.9309 83.9205 60.9309C83.743 60.8361 83.702 60.1177 83.702 59.3587C83.702 59.3045 83.702 59.2503 83.702 59.1825C83.702 58.8979 83.7157 58.6132 83.7293 58.3557C83.7293 58.3421 83.7293 58.3286 83.7293 58.315C84.1116 58.3421 84.3573 58.3421 84.3573 58.3421C85.0536 58.2879 85.4905 56.4175 85.6543 54.913C85.6543 54.913 85.9956 54.0862 85.9956 53.1916C85.9956 52.6901 85.8864 52.1615 85.5451 51.7549C85.3676 51.538 85.2038 51.4025 85.0536 51.3212C85.0126 51.2805 84.9717 51.2399 84.9171 51.1992C84.2618 50.4808 81.6132 47.7836 79.8658 49.3423C79.8248 49.1932 79.2514 47.4312 76.5073 48.014C76.6848 48.0005 77.8998 47.8785 78.2548 48.3664C78.2002 48.3393 77.149 47.8785 76.4664 48.2851C76.1524 48.4748 75.9612 48.8679 75.852 49.2745C75.852 49.2745 75.852 49.2745 75.852 49.2881C75.852 49.2881 75.852 49.2881 75.852 49.3016V49.3152C75.8384 49.3694 75.8247 49.4236 75.811 49.4778C75.811 49.4914 75.811 49.4914 75.811 49.505C75.811 49.505 75.811 49.505 75.811 49.5185C75.7291 49.9387 75.7291 50.3453 75.7838 50.5486C75.893 50.9688 76.6438 52.2429 77.149 52.2429C77.3401 52.2429 77.5449 52.1751 77.7224 52.1073C77.6404 52.3377 77.5722 52.5817 77.5176 52.8528C76.9851 55.3467 78.6507 57.2443 79.5108 56.7699C80.0705 56.4717 80.4801 57.434 80.4801 57.434C80.3982 59.2638 79.8931 60.443 79.5244 60.7412C79.3879 60.7547 79.1012 60.7954 78.7326 60.8496C78.7326 60.8496 77.463 60.9852 76.4937 61.4053C76.48 61.4053 76.48 61.4053 76.4664 61.4189C76.2479 61.5138 76.0568 61.6086 75.9203 61.7171C75.852 61.7713 75.7837 61.8391 75.7428 61.9068C75.7155 61.9339 75.7018 61.961 75.6882 61.9882C75.3605 62.5981 75.0329 63.5198 74.7189 64.6041C76.5756 65.9866 78.8964 66.7998 81.3948 66.7998C84.1525 66.7998 86.6646 65.8104 88.6168 64.1703C87.9206 62.6387 87.1014 61.8662 86.6509 61.5409Z" fill="#2B478B"/>
<path d="M118.529 48.7596H103.552C103.034 48.7596 102.61 48.3394 102.61 47.8244V47.3771C102.61 46.8621 103.034 46.4419 103.552 46.4419H118.529C119.048 46.4419 119.471 46.8621 119.471 47.3771V47.8244C119.471 48.3394 119.048 48.7596 118.529 48.7596Z" fill="white"/>
<path d="M118.706 57.1089H103.375C102.952 57.1089 102.61 56.77 102.61 56.3498C102.61 55.9297 102.952 55.5908 103.375 55.5908H118.706C119.129 55.5908 119.471 55.9297 119.471 56.3498C119.471 56.77 119.129 57.1089 118.706 57.1089Z" fill="white"/>
<path d="M111.921 60.687H103.197C102.87 60.687 102.61 60.4295 102.61 60.1042V59.7518C102.61 59.4265 102.87 59.1689 103.197 59.1689H111.921C112.249 59.1689 112.508 59.4265 112.508 59.7518V60.1042C112.508 60.4159 112.235 60.687 111.921 60.687Z" fill="white"/>
<path d="M129.696 60.687H115.607C115.211 60.687 114.87 60.3617 114.87 59.9551V59.9009C114.87 59.5078 115.198 59.1689 115.607 59.1689H129.696C130.092 59.1689 130.433 59.4942 130.433 59.9009V59.9551C130.42 60.3617 130.092 60.687 129.696 60.687Z" fill="white"/>
<path d="M142.857 57.1089H122.761C122.338 57.1089 121.996 56.77 121.996 56.3498C121.996 55.9297 122.338 55.5908 122.761 55.5908H142.857C143.28 55.5908 143.622 55.9297 143.622 56.3498C143.622 56.77 143.28 57.1089 142.857 57.1089Z" fill="white"/>
<path d="M118.706 64.2651H103.375C102.952 64.2651 102.61 63.9263 102.61 63.5061C102.61 63.0859 102.952 62.7471 103.375 62.7471H118.706C119.129 62.7471 119.471 63.0859 119.471 63.5061C119.471 63.9263 119.129 64.2651 118.706 64.2651Z" fill="white"/>
<path d="M142.857 64.2651H122.761C122.338 64.2651 121.996 63.9263 121.996 63.5061C121.996 63.0859 122.338 62.7471 122.761 62.7471H142.857C143.28 62.7471 143.622 63.0859 143.622 63.5061C143.622 63.9263 143.28 64.2651 142.857 64.2651Z" fill="white"/>
<path d="M133.109 48.7596H122.365C121.915 48.7596 121.56 48.3936 121.56 47.9599V47.2416C121.56 46.7943 121.928 46.4419 122.365 46.4419H133.109C133.56 46.4419 133.915 46.8078 133.915 47.2416V47.9599C133.915 48.4072 133.546 48.7596 133.109 48.7596Z" fill="white"/>
<path d="M119.553 123.266H108.918C108.549 123.266 108.249 122.968 108.249 122.602V122.29C108.249 121.924 108.549 121.626 108.918 121.626H119.553C119.921 121.626 120.222 121.924 120.222 122.29V122.602C120.235 122.968 119.921 123.266 119.553 123.266Z" fill="#699DEE"/>
<path d="M119.689 127.481H108.795C108.494 127.481 108.249 127.237 108.249 126.939C108.249 126.641 108.494 126.397 108.795 126.397H119.689C119.99 126.397 120.235 126.641 120.235 126.939C120.222 127.237 119.99 127.481 119.689 127.481Z" fill="#699DEE"/>
<path d="M114.856 130.029H108.658C108.426 130.029 108.249 129.84 108.249 129.623V129.365C108.249 129.135 108.44 128.958 108.658 128.958H114.856C115.088 128.958 115.266 129.148 115.266 129.365V129.623C115.28 129.84 115.088 130.029 114.856 130.029Z" fill="#699DEE"/>
<path d="M127.498 130.029H117.478C117.191 130.029 116.959 129.799 116.959 129.514V129.474C116.959 129.189 117.191 128.958 117.478 128.958H127.498C127.785 128.958 128.017 129.189 128.017 129.474V129.514C128.017 129.799 127.785 130.029 127.498 130.029Z" fill="#699DEE"/>
<path d="M136.864 127.481H122.57C122.269 127.481 122.024 127.237 122.024 126.939C122.024 126.641 122.269 126.397 122.57 126.397H136.864C137.164 126.397 137.41 126.641 137.41 126.939C137.396 127.237 137.15 127.481 136.864 127.481Z" fill="#699DEE"/>
<path d="M119.689 132.577H108.795C108.494 132.577 108.249 132.333 108.249 132.035C108.249 131.737 108.494 131.493 108.795 131.493H119.689C119.99 131.493 120.235 131.737 120.235 132.035C120.222 132.333 119.99 132.577 119.689 132.577Z" fill="#699DEE"/>
<path d="M136.864 132.577H122.57C122.269 132.577 122.024 132.333 122.024 132.035C122.024 131.737 122.269 131.493 122.57 131.493H136.864C137.164 131.493 137.41 131.737 137.41 132.035C137.396 132.333 137.15 132.577 136.864 132.577Z" fill="#699DEE"/>
<path d="M129.928 123.266H122.283C121.969 123.266 121.71 123.008 121.71 122.697V122.182C121.71 121.87 121.969 121.612 122.283 121.612H129.928C130.242 121.612 130.502 121.87 130.502 122.182V122.697C130.502 123.008 130.242 123.266 129.928 123.266Z" fill="#699DEE"/>
<path d="M126.611 20.5409H115.976C115.607 20.5409 115.307 20.2427 115.307 19.8768V19.565C115.307 19.1991 115.607 18.9009 115.976 18.9009H126.611C126.98 18.9009 127.28 19.1991 127.28 19.565V19.8768C127.28 20.2427 126.98 20.5409 126.611 20.5409Z" fill="#699DEE"/>
<path d="M126.747 24.7691H115.853C115.553 24.7691 115.307 24.5252 115.307 24.227C115.307 23.9288 115.553 23.6848 115.853 23.6848H126.747C127.048 23.6848 127.293 23.9288 127.293 24.227C127.28 24.5252 127.048 24.7691 126.747 24.7691Z" fill="#699DEE"/>
<path d="M121.914 27.3173H115.716C115.484 27.3173 115.307 27.1276 115.307 26.9107V26.6532C115.307 26.4228 115.498 26.2466 115.716 26.2466H121.914C122.147 26.2466 122.324 26.4363 122.324 26.6532V26.9107C122.338 27.1276 122.147 27.3173 121.914 27.3173Z" fill="#699DEE"/>
<path d="M134.556 27.3173H124.536C124.249 27.3173 124.017 27.0869 124.017 26.8023V26.7616C124.017 26.477 124.249 26.2466 124.536 26.2466H134.556C134.843 26.2466 135.075 26.477 135.075 26.7616V26.8023C135.075 27.0869 134.843 27.3173 134.556 27.3173Z" fill="#699DEE"/>
<path d="M143.922 24.7691H129.628C129.328 24.7691 129.082 24.5252 129.082 24.227C129.082 23.9288 129.328 23.6848 129.628 23.6848H143.922C144.222 23.6848 144.468 23.9288 144.468 24.227C144.454 24.5252 144.209 24.7691 143.922 24.7691Z" fill="#699DEE"/>
<path d="M136.987 20.5403H129.341C129.027 20.5403 128.768 20.2828 128.768 19.971V19.456C128.768 19.1442 129.027 18.8867 129.341 18.8867H136.987C137.301 18.8867 137.56 19.1442 137.56 19.456V19.971C137.56 20.2963 137.301 20.5403 136.987 20.5403Z" fill="#699DEE"/>
<path d="M136.017 91.8748H124.372C123.962 91.8748 123.635 91.5495 123.635 91.1429V90.7905C123.635 90.3839 123.962 90.0586 124.372 90.0586H136.017C136.427 90.0586 136.754 90.3839 136.754 90.7905V91.1429C136.754 91.536 136.427 91.8748 136.017 91.8748Z" fill="white"/>
<path d="M136.154 96.4967H124.222C123.894 96.4967 123.635 96.2256 123.635 95.9139C123.635 95.5886 123.908 95.3311 124.222 95.3311H136.154C136.481 95.3311 136.741 95.6021 136.741 95.9139C136.754 96.2256 136.481 96.4967 136.154 96.4967Z" fill="white"/>
<path d="M130.884 99.2753H124.099C123.853 99.2753 123.648 99.0719 123.648 98.828V98.5569C123.648 98.3129 123.853 98.1096 124.099 98.1096H130.884C131.13 98.1096 131.335 98.3129 131.335 98.5569V98.828C131.335 99.0719 131.13 99.2753 130.884 99.2753Z" fill="white"/>
<path d="M144.714 99.2751H133.751C133.437 99.2751 133.178 99.0176 133.178 98.7059V98.6652C133.178 98.3535 133.437 98.0959 133.751 98.0959H144.714C145.028 98.0959 145.287 98.3535 145.287 98.6652V98.7059C145.287 99.0176 145.028 99.2751 144.714 99.2751Z" fill="white"/>
<path d="M154.967 96.4967H139.321C138.994 96.4967 138.734 96.2256 138.734 95.9139C138.734 95.5886 139.007 95.3311 139.321 95.3311H154.967C155.294 95.3311 155.554 95.6021 155.554 95.9139C155.554 96.2256 155.281 96.4967 154.967 96.4967Z" fill="white"/>
<path d="M136.154 102.068H124.222C123.894 102.068 123.635 101.796 123.635 101.485C123.635 101.159 123.908 100.902 124.222 100.902H136.154C136.481 100.902 136.741 101.173 136.741 101.485C136.754 101.796 136.481 102.068 136.154 102.068Z" fill="white"/>
<path d="M154.967 102.068H139.321C138.994 102.068 138.734 101.796 138.734 101.485C138.734 101.159 139.007 100.902 139.321 100.902H154.967C155.294 100.902 155.554 101.173 155.554 101.485C155.554 101.796 155.281 102.068 154.967 102.068Z" fill="white"/>
<path d="M136.154 104.968H124.222C123.894 104.968 123.635 104.697 123.635 104.385C123.635 104.06 123.908 103.802 124.222 103.802H136.154C136.481 103.802 136.741 104.073 136.741 104.385C136.754 104.697 136.481 104.968 136.154 104.968Z" fill="white"/>
<path d="M154.967 104.968H139.321C138.994 104.968 138.734 104.697 138.734 104.385C138.734 104.06 139.007 103.802 139.321 103.802H154.967C155.294 103.802 155.554 104.073 155.554 104.385C155.554 104.697 155.281 104.968 154.967 104.968Z" fill="white"/>
<path d="M147.376 91.8747H139.007C138.666 91.8747 138.379 91.5901 138.379 91.2512V90.6955C138.379 90.3567 138.666 90.072 139.007 90.072H147.376C147.717 90.072 148.004 90.3567 148.004 90.6955V91.2512C148.004 91.5901 147.717 91.8747 147.376 91.8747Z" fill="white"/>
<path d="M108.426 11.9608L107.621 12.5436L106.802 11.9744C106.979 11.7168 107.279 11.5542 107.621 11.5542C107.948 11.5542 108.249 11.7168 108.426 11.9608Z" fill="white"/>
<path d="M107.621 10.1445C106.802 10.1445 106.092 10.5512 105.655 11.1611L106.174 11.5135C106.501 11.0662 107.034 10.768 107.634 10.768C108.235 10.768 108.754 11.0526 109.081 11.5135L109.6 11.1475C109.136 10.5376 108.426 10.1445 107.621 10.1445Z" fill="white"/>
<path d="M107.621 7.47437C105.901 7.47437 104.371 8.32826 103.457 9.62944L103.976 9.98184C104.781 8.84331 106.119 8.09784 107.634 8.09784C109.122 8.09784 110.46 8.82976 111.266 9.95473L111.771 9.58877C110.843 8.3147 109.327 7.47437 107.621 7.47437Z" fill="white"/>
<path d="M107.621 8.93823C106.392 8.93823 105.313 9.53461 104.645 10.4563L105.163 10.8087C105.709 10.0497 106.61 9.54816 107.621 9.54816C108.631 9.54816 109.518 10.0361 110.064 10.7816L110.57 10.4156C109.914 9.53461 108.836 8.93823 107.621 8.93823Z" fill="white"/>
<path d="M103.074 97.0932C103.074 98.2724 103.47 99.3567 104.153 100.224C104.371 100.509 104.631 100.78 104.904 101.01C105.177 101.241 105.477 101.444 105.805 101.62C106.528 102.013 107.361 102.23 108.249 102.23C109.354 102.23 110.378 101.891 111.211 101.308C111.252 101.281 111.293 101.254 111.334 101.214C111.716 100.929 112.058 100.604 112.344 100.224C113.013 99.3567 113.423 98.2724 113.423 97.0932C113.423 94.2605 111.102 91.9563 108.249 91.9563C105.395 91.9563 103.074 94.2605 103.074 97.0932Z" fill="white"/>
<path d="M109.655 100.386L109.177 99.9662C109.136 99.9798 109.095 99.9798 109.054 99.9933C108.972 99.9391 108.877 99.8713 108.781 99.8171C108.808 99.6274 108.836 99.4512 108.863 99.2885C108.931 98.7328 108.945 98.4075 108.945 98.3533C109.191 98.3397 109.368 98.3126 109.368 98.3126C109.846 98.2042 109.873 96.5777 109.764 95.7374C109.86 95.7374 109.942 95.7238 110.023 95.6832C110.378 95.5205 110.406 94.9784 110.406 94.9784C110.406 94.9784 110.296 95.1681 110.146 95.2359C110.146 95.2359 110.747 94.4091 110.051 93.8534C109.354 93.2841 108.645 93.6636 108.235 93.6772C107.348 93.7314 106.761 93.7856 106.474 94.3684C106.187 94.9377 106.296 96.5235 106.856 97.1063C106.87 97.1605 106.87 97.2148 106.883 97.269C106.911 97.4723 106.993 97.6485 107.102 97.784C106.979 98.4617 106.692 98.9768 106.447 99.3156C106.269 99.4512 106.119 99.6138 105.969 99.8307L105.955 99.8442C105.682 100.224 105.464 100.725 105.286 101.294C105.286 101.294 105.286 101.294 105.286 101.308C105.573 101.511 105.9 101.688 106.228 101.823C106.255 101.837 106.269 101.837 106.296 101.85H106.31C106.351 101.864 106.378 101.877 106.419 101.891C106.501 101.932 106.597 101.959 106.679 101.986C106.774 102.013 106.87 102.04 106.965 102.067C107.006 102.081 107.047 102.094 107.102 102.094C107.143 102.108 107.184 102.108 107.225 102.121H107.238C107.266 102.121 107.293 102.135 107.32 102.135C107.375 102.148 107.443 102.162 107.498 102.162C107.511 102.162 107.525 102.162 107.539 102.162C107.58 102.162 107.607 102.175 107.634 102.175C107.689 102.175 107.73 102.189 107.771 102.189C107.825 102.189 107.88 102.203 107.935 102.203C107.989 102.203 108.044 102.203 108.085 102.216C108.139 102.216 108.194 102.216 108.249 102.216C108.303 102.216 108.358 102.216 108.426 102.216H108.44C108.453 102.216 108.467 102.216 108.481 102.216C108.508 102.216 108.535 102.216 108.563 102.216C108.563 102.216 108.563 102.216 108.576 102.216C108.631 102.216 108.686 102.216 108.74 102.203C109.436 102.135 110.105 101.932 110.692 101.62C110.378 101.105 109.996 100.712 109.655 100.386Z" fill="#699DEE"/>
<path d="M153.874 126.953C153.874 128.145 154.284 129.23 154.953 130.111C155.171 130.395 155.431 130.666 155.717 130.897C156.618 131.656 157.806 132.117 159.089 132.117C160.25 132.117 161.328 131.737 162.202 131.087C162.584 130.802 162.926 130.463 163.212 130.097C163.895 129.23 164.291 128.132 164.291 126.939C164.291 124.079 161.956 121.761 159.076 121.761C156.195 121.761 153.874 124.093 153.874 126.953Z" fill="white"/>
<path d="M161.738 129.88C161.738 129.867 161.724 129.853 161.711 129.839C161.683 129.812 161.656 129.785 161.629 129.758C161.56 129.704 161.478 129.663 161.369 129.623C161.369 129.623 161.369 129.623 161.356 129.623C160.905 129.433 160.304 129.365 160.304 129.365C160.141 129.338 160.004 129.324 159.936 129.311C159.758 129.175 159.526 128.62 159.485 127.766C159.485 127.766 159.676 127.318 159.936 127.454C160.345 127.671 161.11 126.79 160.864 125.624C160.837 125.502 160.809 125.38 160.769 125.285C160.85 125.326 160.946 125.353 161.042 125.353C161.274 125.353 161.629 124.757 161.683 124.567C161.738 124.364 161.683 123.713 161.356 123.523C161.042 123.334 160.55 123.55 160.523 123.564C160.687 123.347 161.233 123.388 161.328 123.401C160.059 123.144 159.786 123.957 159.772 124.025C158.966 123.293 157.724 124.553 157.424 124.892C157.396 124.906 157.383 124.933 157.356 124.946C157.287 124.987 157.205 125.055 157.123 125.15C156.96 125.34 156.919 125.583 156.919 125.827C156.919 126.248 157.082 126.627 157.082 126.627C157.151 127.332 157.356 128.199 157.683 128.227C157.683 128.227 157.792 128.227 157.97 128.213C157.97 128.227 157.97 128.227 157.97 128.24C157.97 128.362 157.984 128.498 157.984 128.62V128.701C157.984 129.053 157.956 129.392 157.888 129.433C157.861 129.433 157.833 129.433 157.82 129.433C157.792 129.433 157.724 129.446 157.724 129.446C157.437 129.487 157.233 129.514 157.096 129.541C156.809 129.582 156.741 129.623 156.673 129.677C156.659 129.69 156.646 129.704 156.618 129.731C156.414 129.894 156.031 130.246 155.69 130.937C156.605 131.696 157.779 132.157 159.062 132.157C160.222 132.157 161.301 131.778 162.175 131.127C162.052 130.585 161.888 130.165 161.738 129.88Z" fill="#FDCD51"/>
<path d="M153.874 23.0068C153.874 24.1996 154.284 25.2839 154.953 26.1649C155.171 26.4496 155.431 26.7206 155.717 26.951C156.618 27.7101 157.806 28.1709 159.089 28.1709C160.25 28.1709 161.328 27.7914 162.202 27.1408C162.584 26.8562 162.926 26.5173 163.212 26.1514C163.895 25.2839 164.291 24.186 164.291 22.9933C164.291 20.1334 161.956 17.8157 159.076 17.8157C156.195 17.8157 153.874 20.147 153.874 23.0068Z" fill="white"/>
<path d="M161.738 25.9348C161.738 25.9212 161.724 25.9077 161.711 25.8941C161.683 25.867 161.656 25.8399 161.629 25.8128C161.56 25.7586 161.478 25.7179 161.369 25.6772C161.369 25.6772 161.369 25.6772 161.356 25.6772C160.905 25.4875 160.304 25.4197 160.304 25.4197C160.141 25.3926 160.004 25.3791 159.936 25.3655C159.895 25.3248 159.854 25.2706 159.799 25.1893C159.649 24.9318 159.513 24.4574 159.485 23.8204C159.485 23.8204 159.676 23.3731 159.936 23.5086C160.345 23.7255 161.11 22.8445 160.864 21.6788C160.837 21.5568 160.81 21.4349 160.769 21.34C160.85 21.3806 160.946 21.4078 161.042 21.4078C161.274 21.4078 161.629 20.8114 161.683 20.6216C161.738 20.4183 161.683 19.7677 161.356 19.578C161.042 19.3882 160.55 19.6051 160.523 19.6186C160.687 19.4018 161.233 19.4424 161.328 19.456C160.059 19.1985 159.786 20.0117 159.772 20.0795C158.966 19.3476 157.724 20.6081 157.424 20.9469C157.396 20.9605 157.383 20.9876 157.356 21.0011C157.287 21.0418 157.205 21.1096 157.123 21.2044C156.96 21.3942 156.919 21.6382 156.919 21.8821C156.919 22.3023 157.082 22.6818 157.082 22.6818C157.151 23.3866 157.356 24.2541 157.683 24.2812C157.683 24.2812 157.792 24.2812 157.97 24.2676C157.97 24.2812 157.97 24.2812 157.97 24.2947C157.97 24.4167 157.984 24.5523 157.984 24.6743V24.7556C157.984 25.108 157.956 25.4468 157.888 25.4875C157.861 25.4875 157.833 25.4875 157.82 25.4875C157.792 25.4875 157.724 25.501 157.724 25.501C157.437 25.5417 157.233 25.5688 157.096 25.5959C156.809 25.6501 156.741 25.6772 156.673 25.7315C156.659 25.745 156.646 25.7721 156.618 25.7857C156.414 25.9348 156.031 26.3007 155.69 26.992C155.745 27.0326 155.786 27.0733 155.84 27.114C155.854 27.114 155.854 27.1275 155.867 27.1275C155.908 27.1546 155.949 27.1817 155.99 27.2088C156.018 27.2359 156.045 27.2495 156.072 27.2766C156.1 27.2902 156.127 27.3173 156.154 27.3308C156.195 27.3579 156.236 27.385 156.277 27.4121C156.304 27.4257 156.332 27.4528 156.359 27.4664C156.4 27.4935 156.427 27.507 156.468 27.5341C156.509 27.5612 156.55 27.5748 156.591 27.6019C156.591 27.6019 156.591 27.6019 156.605 27.6019L156.618 27.6155C156.646 27.629 156.687 27.6561 156.714 27.6697C156.728 27.6697 156.741 27.6832 156.741 27.6832C156.755 27.6968 156.782 27.6968 156.796 27.7103C156.809 27.7239 156.837 27.7239 156.85 27.7374C156.891 27.751 156.932 27.7781 156.973 27.7917C157.014 27.8052 157.055 27.8323 157.096 27.8459C157.11 27.8594 157.137 27.8594 157.151 27.873C157.164 27.873 157.192 27.8865 157.205 27.9001C157.246 27.9136 157.287 27.9272 157.328 27.9408C157.369 27.9543 157.41 27.9679 157.451 27.9814C157.492 27.995 157.519 28.0085 157.56 28.0085H157.574C157.601 28.0085 157.615 28.0221 157.642 28.0221C157.765 28.0627 157.888 28.0898 158.024 28.1034C158.079 28.117 158.134 28.1305 158.188 28.1305C158.202 28.1305 158.216 28.1305 158.229 28.1305H158.243C158.284 28.1305 158.311 28.1441 158.352 28.1441C158.366 28.1441 158.366 28.1441 158.379 28.1441H158.393C158.434 28.1441 158.461 28.1576 158.489 28.1576H158.502C158.516 28.1576 158.53 28.1576 158.53 28.1576C158.584 28.1576 158.652 28.1712 158.707 28.1712H158.721C158.734 28.1712 158.762 28.1712 158.775 28.1712C158.789 28.1712 158.803 28.1712 158.816 28.1712C158.871 28.1712 158.939 28.1712 158.994 28.1712C160.154 28.1712 161.233 27.7917 162.106 27.1411C162.052 26.6531 161.888 26.2194 161.738 25.9348Z" fill="#FDCD51"/>
<path d="M224.565 228.349L205.807 238H193.315C190.298 235.994 174.666 225.408 168.195 217.506C166.83 215.839 161.806 201.404 157.956 189.707C158.475 191.266 169.233 214.009 172.291 216.598C175.349 219.187 191.445 234.245 195.882 234.083C200.182 233.934 223.091 228.702 224.511 228.376C224.524 228.363 224.538 228.363 224.565 228.349Z" fill="#FDCD51"/>
<path d="M262.314 238H194.667C198.053 236.672 211.036 231.751 224.497 228.376C224.524 228.376 224.538 228.363 224.565 228.363C236.115 225.462 248.02 223.7 254.477 226.343L254.518 226.411L262.314 238Z" fill="#D2E3FC"/>
<path d="M153.342 149.303C154.489 148.883 156.086 148.612 156.864 149.899C158.079 151.905 153.574 169.634 153.014 171.857L153.342 149.303Z" fill="#FDCD51"/>
<path d="M153.683 139.774L153.301 150.496C153.301 150.496 155.567 150.862 156.864 149.899C158.161 148.937 157.465 139.639 153.683 139.774Z" fill="#FDCD51"/>
<path d="M108.249 201.852C101.75 203.18 87.743 198.111 87.743 198.111L90.0093 176.438L74.1728 194.438C66.118 191.456 53.517 183.689 46.0356 178.864C65.217 176.79 79.5381 157.991 79.5381 157.991C92.8353 165.147 107.853 169.322 107.853 169.322C107.839 182.185 108.249 201.852 108.249 201.852Z" fill="#CBE1FD"/>
<path d="M63.6471 182.171C63.6607 180.721 64.8485 179.569 66.3093 179.582C67.77 179.596 68.9305 180.775 68.9168 182.225C68.9032 183.676 67.7154 184.828 66.2546 184.814C64.7939 184.787 63.6334 183.608 63.6471 182.171Z" fill="#FFDB7D"/>
</svg>
