<svg width="22" height="13" viewBox="0 0 22 13" fill="none" xmlns="http://www.w3.org/2000/svg">
<path d="M8.34203 12.7821L6.41103 12.2641L7.19803 9.32511C6.01999 8.89064 4.92514 8.25747 3.96103 7.45311L1.80803 9.60711L0.393025 8.19211L2.54703 6.03911C1.3311 4.58287 0.514113 2.83587 0.176025 0.969107L2.14403 0.610107C2.90303 4.81211 6.57903 8.00011 11 8.00011C15.42 8.00011 19.097 4.81211 19.856 0.610107L21.824 0.968107C21.4864 2.83512 20.6697 4.58248 19.454 6.03911L21.607 8.19211L20.192 9.60711L18.039 7.45311C17.0749 8.25747 15.9801 8.89064 14.802 9.32511L15.589 12.2651L13.658 12.7821L12.87 9.84211C11.6324 10.0542 10.3677 10.0542 9.13003 9.84211L8.34203 12.7821Z" fill="#212121"/>
</svg>
