<svg width="77" height="77" viewBox="0 0 77 77" fill="none" xmlns="http://www.w3.org/2000/svg">
<rect x="0.282227" y="0.101501" width="76" height="76" rx="38" fill="#F1E4FF"/>
<path d="M30.6765 49.5527V46.2567L38.3245 38.3847C40.0311 36.5927 40.8845 35.0993 40.8845 33.9047C40.8845 33.03 40.6071 32.326 40.0525 31.7927C39.5191 31.2593 38.8258 30.9927 37.9725 30.9927C36.2871 30.9927 35.0391 31.8673 34.2285 33.6167L30.5165 31.4407C31.2205 29.9047 32.2338 28.7313 33.5565 27.9207C34.8791 27.11 36.3298 26.7047 37.9085 26.7047C39.9351 26.7047 41.6738 27.3447 43.1245 28.6247C44.5751 29.8833 45.3005 31.59 45.3005 33.7447C45.3005 36.07 44.0738 38.4593 41.6205 40.9127L37.2365 45.2967H45.6525V49.5527H30.6765Z" fill="#685ED6"/>
</svg>
