<svg width="72" height="72" viewBox="0 0 72 72" fill="none" xmlns="http://www.w3.org/2000/svg">
<rect width="72" height="72" rx="36" fill="#F1E4FF"/>
<path d="M38.4162 34.52C39.8362 34.94 40.9862 35.68 41.8662 36.74C42.7662 37.78 43.2162 39.04 43.2162 40.52C43.2162 42.68 42.4862 44.37 41.0262 45.59C39.5862 46.81 37.8162 47.42 35.7162 47.42C34.0762 47.42 32.6062 47.05 31.3062 46.31C30.0262 45.55 29.0962 44.44 28.5162 42.98L32.0562 40.94C32.5762 42.56 33.7962 43.37 35.7162 43.37C36.7762 43.37 37.5962 43.12 38.1762 42.62C38.7762 42.1 39.0762 41.4 39.0762 40.52C39.0762 39.66 38.7762 38.97 38.1762 38.45C37.5962 37.93 36.7762 37.67 35.7162 37.67H34.8162L33.2262 35.27L37.3662 29.87H29.1462V26H42.3462V29.42L38.4162 34.52Z" fill="#685ED6"/>
</svg>
