<svg width="143" height="121" viewBox="0 0 143 121" fill="none" xmlns="http://www.w3.org/2000/svg">
<path fill-rule="evenodd" clip-rule="evenodd" d="M0.627136 102.102C21.9514 91.603 32.6134 79.2669 32.6134 65.0933C23.5243 64.0434 16.0085 60.3251 10.0657 53.9382C4.12286 47.5513 1.1515 40.1584 1.1515 31.7592C1.1515 22.8351 4.03548 15.3109 9.80351 9.18655C15.5715 3.06215 22.8252 0 31.5646 0C41.3528 0 49.83 3.9808 56.9963 11.9425C64.1627 19.9042 67.7458 29.5719 67.7458 40.9458C67.7458 75.0674 48.6941 101.752 10.5901 121L0.627136 102.102ZM75.8814 102.102C97.3804 91.603 108.13 79.2669 108.13 65.0933C98.866 64.0434 91.2627 60.3251 85.3199 53.9382C79.3771 47.5513 76.4057 40.1584 76.4057 31.7592C76.4057 22.8351 79.3334 15.3109 85.1888 9.18655C91.0443 3.06215 98.3416 0 107.081 0C116.869 0 125.303 3.9808 132.382 11.9425C139.461 19.9042 143 29.5719 143 40.9458C143 75.0674 124.036 101.752 86.1065 121L75.8814 102.102Z" fill="#E6DCFE"/>
</svg>
